<?xml version="1.0" encoding="utf-8"?>
<!-- Generator: Adobe Illustrator 15.0.0, SVG Export Plug-In . SVG Version: 6.00 Build 0)  -->
<!DOCTYPE svg PUBLIC "-//W3C//DTD SVG 1.1//EN" "http://www.w3.org/Graphics/SVG/1.1/DTD/svg11.dtd">
<svg version="1.1" id="Слой_2" xmlns="http://www.w3.org/2000/svg" xmlns:xlink="http://www.w3.org/1999/xlink" x="0px" y="0px"
	 width="218px" height="189.083px" viewBox="-62 -116.583 218 189.083" enable-background="new -62 -116.583 218 189.083"
	 xml:space="preserve">
	<g>
<path fill="#303030" stroke="#0F0F0F" stroke-linecap="round" stroke-linejoin="round" stroke-miterlimit="10" d="M132.691-43.834
	c0,0-2.663-63.324-6.612-67.85c-3.951-4.522-21.194-3.33-25.774,1.457c-4.569,4.792-44.618,85.812-31.997,94.729
	c8.223,5.808,26.356,3.901,31.681,3.68c2.381,12.11,3.078,20.477,6.405,24.169c3.33,3.697,20.012,3.604,25.026-1.642
	c5.01-5.243,0.537-23.692,0.499-28.764c6.045,1.506,12.085,1.199,15.754-2.734c3.664-3.929,2.882-19.737-1.185-23.231
	C142.423-47.515,132.691-43.834,132.691-43.834z M109.789-42.853c-11.107,1.008-15.981,1.265-15.408-2.188
	c0.738-4.412,5.114-22.359,11.721-25.428C109.758-72.173,109.808-51.05,109.789-42.853z"/>
<path fill="#303030" stroke="#0F0F0F" stroke-linecap="round" stroke-linejoin="round" stroke-miterlimit="10" d="M92.861-56.312
	c-1.677-35.404-13.777-52.188-44.898-52.174c0,0-37.134,0.4-38.286,39.052C7.93-10.975,14.414,12.474,46.506,12.352
	C78.599,12.229,95.219-6.655,92.861-56.312z M50.869-26.369C36.991-27.037,33.468-37.97,36.318-58.058
	c3.134-22.092,13.598-19.413,13.598-19.413c6.328-0.22,14.694,4.847,14.919,22.092C65.064-38.128,63.858-25.738,50.869-26.369z"/>
<path opacity="0.3" fill="#0F0F0F" enable-background="new    " d="M21.028-99.503l-3.932,62.657c0,0,15.001-4.687,14.776,6.917
	C31.649-18.324,30.306,1.527,14.074-8.065C12.008-14.44-9.964-72.01,21.028-99.503z"/>
<path fill="#303030" stroke="#0F0F0F" stroke-linecap="round" stroke-linejoin="round" stroke-miterlimit="10" d="M11.781-41.765
	c0,0,5.941-63.128,2.593-68.117c-3.346-4.982-20.604-5.972-25.747-1.796c-5.147,4.174-50.677,82.141-44.304,89.929
	c6.374,7.786,28.264,7.412,32.778,7.707c-3.021,13.893-3.838,22.31-1.007,26.395c2.829,4.085,18.336,5.971,25.018,2.307
	c4.197-2.307,4.59-17.171,5.841-29.199c7.872,2.006,12.633,0.958,16.764-2.474c4.131-3.437,5.358-19.223,1.771-23.196
	C21.898-44.193,11.781-41.765,11.781-41.765z M-12.69-43.931c-11.146-0.398-14.388-0.499-13.377-3.85
	c1.292-4.284,5.491-18.945,12.428-21.159C-9.796-70.168-11.64-52.064-12.69-43.931z"/>
<path opacity="0.3" fill="#0F0F0F" enable-background="new    " d="M90.373-93.242c0,0,7.955,10.823,8.907,28.708
	c-2.022,5.343-11.892,23.337,1.656,21.397c0.112,4.223-2.628,24.952-5.822,30.966c-2.839,0.161-9.121-0.067-9.121-0.067
	s12.78-27.067,0.986-72.475C87.727-86.607,90.373-93.242,90.373-93.242z"/>
<path fill="#303030" stroke="#0F0F0F" stroke-width="0.25" stroke-linecap="round" stroke-linejoin="round" stroke-miterlimit="10" d="
	M-48.686,29.176c0,0-5.095,39.896,10.299,39.901c21.765,0,14.918-39.2,14.918-39.2s-0.412-3.978-4.504-3.978
	c-3.393,0-3.571,1.723-3.733,5.144c-0.252,5.26,4.026,29.079-6.324,29.17c-5.571,0.048-3.399-22.73-2.931-28.699
	c0.469-5.963-2.456-5.497-2.456-5.497S-48.452,25.198-48.686,29.176z"/>
<path fill="#303030" stroke="#0F0F0F" stroke-width="0.25" stroke-linecap="round" stroke-linejoin="round" stroke-miterlimit="10" d="
	M-16.117,29.527c0,0-3.262-0.629-3.383,8.183c-0.121,8.809-3.676,29.848,2.291,30.084c5.969,0.232,4.01-9.396,4.01-10.802
	c1.987,2.228,5.967,10.367,10.647,10.137c4.682-0.236,0.068-6.61-6.251-14.452c2.925-2.808,9.269-4.136,7.512-7.82
	c-1.446-3.043-5.209-1.76-11.063,3.156C-12.233,43.798-7.925,27.891-16.117,29.527z"/>
<path fill="#303030" stroke="#0F0F0F" stroke-width="0.25" stroke-linecap="round" stroke-linejoin="round" stroke-miterlimit="10" d="
	M6.264,41.706c0,0-4.674-0.61-4.759,7.723C1.424,57.768,0.754,67.16,5.679,67.16c4.173,0,3.255-11.324,3.171-16.064
	C8.767,46.358,9.269,41.972,6.264,41.706z"/>
<path fill="#303030" stroke="#0F0F0F" stroke-width="0.25" stroke-linecap="round" stroke-linejoin="round" stroke-miterlimit="10" d="
	M5.48,30.169c0,0-3.655-0.333-4.006,3.817c-0.262,3.082,0.789,5.133,4.168,5.133c1.404,0,4.664-0.397,3.802-5.059
	C9.08,32.091,8.637,30.432,5.48,30.169z"/>
<path fill="#303030" stroke="#0F0F0F" stroke-width="0.25" stroke-linecap="round" stroke-linejoin="round" stroke-miterlimit="10" d="
	M29.601,57.847c-1.403,4.212-10.547,3.861-10.1-1.051c3.431-0.355,14.259-6.145,14.259-6.145s1.927-8.234-9.131-10.001
	c0,0-12.755-1.363-13.281,9.652c-0.43,8.981,2.986,17.729,11.759,17.025c8.774-0.706,12.287-5.969,12.987-10.009
	C36.797,53.279,31.004,53.632,29.601,57.847z M20.693,46.438c3.729-1.055,5.18,1.754,5.18,1.754s-5.485,2.083-7.475,2.669
	C17.692,47.285,20.693,46.438,20.693,46.438z"/>
<path fill="#303030" stroke="#0F0F0F" stroke-width="0.25" stroke-linecap="round" stroke-linejoin="round" stroke-miterlimit="10" d="
	M38.818,30.637c0,0-7.02-0.289-5.618,3.746c1.407,4.04,7.547,28.087,7.547,28.087s0,4.209,2.984,4.209
	c2.985,0,5.791-0.703,8.599-14.744c2.46,5.091,1.761,15.097,7.023,14.744c5.268-0.351,8.074-13.43,11.234-30.762
	c0.681-5.047-5.094-4.48-5.094-4.48s-2.805-1.442-3.86,5.404c-1.055,6.845-1.985,14.122-1.985,14.122s-1.171-11.666-6.264-11.839
	c-5.092-0.175-6.469,5.62-7.62,12.112C44.085,45.967,42.047,30.302,38.818,30.637z"/>
<path fill="#303030" stroke="#0F0F0F" stroke-width="0.25" stroke-linecap="round" stroke-linejoin="round" stroke-miterlimit="10" d="
	M80.271,41.862c0,0-9.012-1.217-9.947,7.56c-0.936,8.778,0.936,18.136,9.359,17.901c8.428-0.232,11.466-6.622,11.348-12.729
	C90.918,48.482,89.047,41.91,80.271,41.862z M80.26,59.016c-2.939,0.084-3.59-3.185-3.268-6.248
	c0.328-3.063,3.473-2.635,3.473-2.635c3.063,0.015,3.719,2.312,3.753,4.441C84.26,56.704,83.2,58.936,80.26,59.016z"/>
<path fill="#303030" stroke="#0F0F0F" stroke-width="0.25" stroke-linecap="round" stroke-linejoin="round" stroke-miterlimit="10" d="
	M93.051,41.862V63.93c0,0-0.338,3.161,3.13,3.394c3.463,0.234,3.569-3.514,3.349-5.033c-0.225-1.518-0.28-10.588-0.28-10.588
	s-1.115-6.7,5.811-4.828c4.249,1.148,4.889-0.645,4.438-3.332c-0.443-2.689-5.19-4.914-10.023-1.738
	C100.094,36.656,93.041,36.025,93.051,41.862z"/>
<path fill="#303030" stroke="#0F0F0F" stroke-width="0.25" stroke-linecap="round" stroke-linejoin="round" stroke-miterlimit="10" d="
	M110.557,33.182v29.487c0,0,0.45,5.662,7.017,4.25c4.883-1.051,4.976-3.002,4.505-5.083c-0.92-4.098-5.866-1.903-5.866-1.903
	l0.488-22.665c0,0,1.23-6.91-2.456-7.078C110.557,30.021,110.557,32.301,110.557,33.182z"/>
<path fill="#303030" stroke="#0F0F0F" stroke-width="0.25" stroke-linecap="round" stroke-linejoin="round" stroke-miterlimit="10" d="
	M144.785,37.045c0,0,1.229-6.912-2.457-7.08c-3.688-0.165-3.688,2.114-3.688,2.997l0.386,13.097
	c-1.628-1.695-3.533-2.706-7.093-2.726c0,0-6.653,0.326-7.855,7.635c-1.432,8.709-0.021,15.956,8.403,15.721
	c3.778-0.103,4.405-1.485,6.213-3.487c0.136,1.054,0.634,2.861,2.564,2.956c4.215,0.209,3.532-6.519,3.532-6.519V37.045H144.785z
	 M133.34,58.89c-2.94,0.084-3.441-1.376-3.457-4.459c-0.021-3.242,2.706-4.004,2.706-4.004c3.6-0.328,4.438,2.011,4.475,4.142
	C137.104,56.698,136.281,58.809,133.34,58.89z"/>
	</g>
</svg>
