<svg version="1.1" xmlns="http://www.w3.org/2000/svg" width="70" height="70" viewBox="0 0 40 40">
	<g class="icon" fill="none" fill-rule="evenodd" transform="translate(10 10)">
		<path fill="#FFF" class="path" fill-rule="nonzero" d="M 8 14.667969 C 9.601562 14.667969 11.070312 14.101562 12.21875 13.160156 L 18.371094 19.3125 L 19.3125 18.371094 L 13.160156 12.21875 C 14.101562 11.070312 14.667969 9.601562 14.667969 8 C 14.667969 4.316406 11.683594 1.332031 8 1.332031 C 4.316406 1.332031 1.332031 4.316406 1.332031 8 C 1.332031 11.683594 4.316406 14.667969 8 14.667969 Z M 8 2 C 11.308594 2 14 4.691406 14 8 C 14 11.308594 11.308594 14 8 14 C 4.691406 14 2 11.308594 2 8 C 2 4.691406 4.691406 2 8 2 Z M 8 2 "/>
	</g>
</svg>